Coordinates
version=1
nRows=37
nColumns=38
inDegrees=no

Units are S.I. units (second, meters, Newtons, ...)
If the header above contains a line with 'inDegrees', this indicates whether rotational values are in degrees (yes) or radians (no).

endheader
time	pelvis_tilt	pelvis_list	pelvis_rotation	pelvis_tx	pelvis_ty	pelvis_tz	hip_flexion_r	hip_adduction_r	hip_rotation_r	knee_angle_r	ankle_angle_r	subtalar_angle_r	mtp_angle_r	hip_flexion_l	hip_adduction_l	hip_rotation_l	knee_angle_l	ankle_angle_l	subtalar_angle_l	mtp_angle_l	lumbar_extension	lumbar_bending	lumbar_rotation	arm_flex_r	arm_add_r	arm_rot_r	elbow_flex_r	pro_sup_r	wrist_flex_r	wrist_dev_r	arm_flex_l	arm_add_l	arm_rot_l	elbow_flex_l	pro_sup_l	wrist_flex_l	wrist_dev_l
1.91	0.134821	1.40561	-1.62732	0.894945	0.00123257	0.939588	0.311869	-0.122805	-0.0643974	1.23129	0.0508452	0	0	-0.111948	0.114267	-0.114366	0.151264	0.103315	0	0	-0.284161	-0.0857015	-0.18437	-0.0665467	-0.240788	0.278115	0.457781	0.842728	0	0	-0.0780068	-0.422703	0.371103	0.703647	1.24068	0	0
1.92	0.103453	1.40475	-1.5884	0.89574	-0.00823878	0.94092	0.323772	-0.119329	-0.0688538	1.19962	0.0642635	0	0	-0.136558	0.109122	-0.0973511	0.127572	0.0988407	0	0	-0.286276	-0.0782971	-0.18886	-0.0686008	-0.240135	0.273539	0.458222	0.845168	0	0	-0.074651	-0.425674	0.369429	0.710832	1.23329	0	0
1.93	0.0764873	1.40481	-1.55467	0.896401	-0.0176218	0.941941	0.335686	-0.116832	-0.0744161	1.1656	0.0765503	0	0	-0.159101	0.104116	-0.0824793	0.105365	0.0949161	0	0	-0.287398	-0.0719267	-0.192447	-0.0712803	-0.239531	0.267912	0.459787	0.846842	0	0	-0.0709463	-0.428608	0.367563	0.717728	1.2272	0	0
1.94	0.0545649	1.40673	-1.52719	0.896864	-0.0268533	0.942543	0.350362	-0.114962	-0.079694	1.13088	0.085129	0	0	-0.176822	0.0994114	-0.0738353	0.0883597	0.0943835	0	0	-0.286612	-0.0669901	-0.195077	-0.0739279	-0.238867	0.263071	0.461332	0.848081	0	0	-0.0668942	-0.431563	0.365934	0.723765	1.22252	0	0
1.95	0.0363474	1.40618	-1.50394	0.897356	-0.036198	0.943224	0.358699	-0.114181	-0.0868199	1.09003	0.093948	0	0	-0.205383	0.0963466	-0.0486771	0.0537088	0.0818743	0	0	-0.28838	-0.0625194	-0.197491	-0.0769656	-0.237907	0.25431	0.463771	0.854564	0	0	-0.0633404	-0.433274	0.359801	0.72979	1.22231	0	0
1.96	0.0204473	1.40824	-1.48268	0.897721	-0.0453978	0.943425	0.368634	-0.113677	-0.0948966	1.04601	0.101552	0	0	-0.224836	0.0923651	-0.0356976	0.0320063	0.0779258	0	0	-0.287459	-0.0589389	-0.20055	-0.0797236	-0.236825	0.24984	0.465978	0.856516	0	0	-0.0596815	-0.435721	0.355325	0.735516	1.2194	0	0
1.97	0.00597101	1.41075	-1.46289	0.897971	-0.0545478	0.943369	0.377285	-0.11318	-0.103647	0.998837	0.109206	0	0	-0.242532	0.0882966	-0.0245402	0.0127351	0.0752465	0	0	-0.286118	-0.0559268	-0.203789	-0.0819257	-0.235499	0.246732	0.467372	0.858247	0	0	-0.0558117	-0.438427	0.351027	0.740941	1.2172	0	0
1.98	-0.00532343	1.41343	-1.44594	0.89816	-0.0636971	0.943087	0.384274	-0.11351	-0.114028	0.94941	0.116913	0	0	-0.257586	0.0842734	-0.0174211	0	0.0758125	0	0	-0.284705	-0.0536399	-0.207553	-0.0836932	-0.233824	0.245147	0.467804	0.860351	0	0	-0.0521951	-0.441052	0.346295	0.745977	1.21541	0	0
1.99	-0.0232234	1.416	-1.42645	0.898704	-0.072686	0.942606	0.390941	-0.12427	-0.128943	0.898003	0.130495	0	0	-0.265944	0.0830621	-0.0109358	0	0.0778463	0	0	-0.283307	-0.0498684	-0.209132	-0.0840015	-0.234644	0.251657	0.469761	0.847853	0	0	-0.0493436	-0.442386	0.341885	0.750148	1.21767	0	0
2	-0.0264282	1.41806	-1.41779	0.898706	-0.0816869	0.941973	0.393708	-0.126038	-0.144262	0.843473	0.136809	0	0	-0.275332	0.0798513	-0.0073105	0	0.0833254	0	0	-0.283256	-0.0491581	-0.212695	-0.0849507	-0.232566	0.250841	0.469972	0.848097	0	0	-0.0454853	-0.44487	0.336642	0.755116	1.2172	0	0
2.01	-0.0274956	1.42056	-1.41171	0.898581	-0.0906972	0.941067	0.395508	-0.127584	-0.160678	0.786984	0.141128	0	0	-0.284183	0.0770452	-0.00351186	0	0.0903984	0	0	-0.282946	-0.0491861	-0.215358	-0.0863067	-0.230338	0.249356	0.470509	0.848259	0	0	-0.0410049	-0.447335	0.332014	0.75993	1.21673	0	0
2.02	-0.0276894	1.42313	-1.40734	0.898258	-0.0997329	0.939917	0.396186	-0.128	-0.177496	0.728815	0.144261	0	0	-0.292908	0.0743564	0.000286301	0	0.0984375	0	0	-0.282675	-0.0498414	-0.216502	-0.088128	-0.227975	0.247013	0.471104	0.84868	0	0	-0.0358791	-0.449845	0.328789	0.764118	1.21651	0	0
2.03	-0.0268036	1.42747	-1.4056	0.897611	-0.108759	0.938332	0.398188	-0.127095	-0.193234	0.669624	0.145885	0	0	-0.299467	0.0723876	-0.000189115	0	0.111664	0	0	-0.281132	-0.0518465	-0.212694	-0.0911156	-0.214455	0.181539	0.463283	0.92799	0	0	-0.0260379	-0.463647	0.370603	0.7798	1.0836	0	0
2.04	-0.0217725	1.42925	-1.40898	0.896871	-0.117847	0.936839	0.396049	-0.125191	-0.209166	0.609621	0.148057	0	0	-0.309217	0.0705836	0.00477568	0	0.116771	0	0	-0.282231	-0.0536753	-0.212542	-0.090518	-0.214637	0.196388	0.460903	0.920898	0	0	-0.0232967	-0.462898	0.354897	0.781557	1.11271	0	0
2.05	-0.0148186	1.43255	-1.41594	0.895944	-0.1269	0.934991	0.395	-0.122208	-0.223445	0.549076	0.148727	0	0	-0.317154	0.0698137	0.00526273	0	0.126684	0	0	-0.282191	-0.0563319	-0.210467	-0.0909493	-0.214304	0.204313	0.461089	0.912775	0	0	-0.0197387	-0.463043	0.343416	0.784464	1.13643	0	0
2.06	-0.0012532	1.43605	-1.43073	0.894848	-0.135961	0.932977	0.393597	-0.118809	-0.236523	0.488789	0.149587	0	0	-0.325046	0.0701513	0.00509637	0	0.136837	0	0	-0.2822	-0.0603066	-0.207043	-0.0915115	-0.213616	0.207991	0.462316	0.904928	0	0	-0.015713	-0.463554	0.3345	0.787192	1.15602	0	0
2.07	0.0178735	1.4396	-1.45218	0.893635	-0.145055	0.930849	0.391641	-0.114776	-0.248004	0.429463	0.149831	0	0	-0.333001	0.0714364	0.00390704	0	0.147005	0	0	-0.282196	-0.0652093	-0.202587	-0.0919468	-0.212603	0.209389	0.463364	0.898568	0	0	-0.0115637	-0.46404	0.327267	0.789354	1.1724	0	0
2.08	0.0376094	1.44307	-1.47553	0.89229	-0.154246	0.928645	0.388467	-0.108973	-0.255253	0.370068	0.148793	0	0	-0.341107	0.0729449	0.00133797	0	0.157046	0	0	-0.282072	-0.070233	-0.197004	-0.0918117	-0.211747	0.211014	0.463272	0.893909	0	0	-0.00757386	-0.46409	0.320586	0.791069	1.18564	0	0
2.09	0.0593488	1.44693	-1.50168	0.890871	-0.163537	0.92634	0.38491	-0.1022	-0.256747	0.311926	0.147231	0	0	-0.348786	0.0748541	-0.00212336	0	0.167056	0	0	-0.281286	-0.0754267	-0.190991	-0.0910464	-0.211083	0.213426	0.462214	0.890681	0	0	-0.00392665	-0.463718	0.314359	0.792125	1.19589	0	0
2.1	0.083318	1.45105	-1.53087	0.88939	-0.172915	0.923959	0.381095	-0.0949118	-0.252092	0.256073	0.145053	0	0	-0.356131	0.0771254	-0.00619262	0	0.177196	0	0	-0.280011	-0.0806953	-0.184618	-0.0897208	-0.210444	0.21551	0.4605	0.8883	0	0	-0.000617814	-0.462924	0.308882	0.791966	1.20399	0	0
2.11	0.108378	1.45508	-1.56184	0.887875	-0.182397	0.921555	0.376729	-0.087342	-0.242058	0.203431	0.141033	0	0	-0.363564	0.0794978	-0.010604	0	0.187142	0	0	-0.278459	-0.0857587	-0.177951	-0.0877998	-0.209923	0.217561	0.458097	0.886801	0	0	0.00251351	-0.46173	0.303968	0.790164	1.21142	0	0
2.12	0.152966	1.45905	-1.61123	0.88682	-0.192141	0.919041	0.365915	-0.0864259	-0.209798	0.145547	0.131367	0	0	-0.37117	0.0841819	-0.0133032	0	0.196266	0	0	-0.276238	-0.0918146	-0.172891	-0.0863161	-0.210224	0.220052	0.456147	0.885647	0	0	0.00492514	-0.459303	0.298989	0.787111	1.21936	0	0
2.13	0.182569	1.4629	-1.64722	0.885249	-0.202049	0.916619	0.360088	-0.0796841	-0.191826	0.101929	0.120104	0	0	-0.378689	0.0867811	-0.020139	0	0.208912	0	0	-0.273803	-0.0967257	-0.164312	-0.083132	-0.20102	0.174632	0.443046	0.94792	0	0	0.0102754	-0.464992	0.326512	0.790792	1.12302	0	0
2.14	0.209112	1.46392	-1.67866	0.883969	-0.212191	0.914472	0.354731	-0.0753306	-0.183776	0.0746878	0.115581	0	0	-0.389569	0.0886996	-0.0213431	0	0.215107	0	0	-0.27393	-0.100075	-0.160791	-0.0807777	-0.203632	0.192205	0.442728	0.937107	0	0	0.00947939	-0.459924	0.310401	0.784915	1.16068	0	0
2.15	0.239657	1.46669	-1.71244	0.882821	-0.222865	0.912206	0.351618	-0.0725227	-0.175717	0.0573279	0.112996	0	0	-0.406706	0.0874644	-0.0283307	0	0.225514	0	0	-0.271172	-0.103076	-0.158423	-0.0795376	-0.204727	0.20216	0.441945	0.927668	0	0	0.00844258	-0.455356	0.298744	0.77842	1.18899	0	0
2.16	0.250325	1.4665	-1.72564	0.881883	-0.233398	0.910373	0.347754	-0.0692953	-0.172424	0.0538491	0.114016	0	0	-0.415418	0.0867913	-0.0301351	0	0.233687	0	0	-0.272244	-0.103305	-0.157141	-0.0779359	-0.205627	0.207996	0.441769	0.920439	0	0	0.00720896	-0.450751	0.289654	0.771879	1.20994	0	0
2.17	0.252701	1.46561	-1.72908	0.881155	-0.244207	0.908724	0.345392	-0.0667861	-0.175058	0.0642419	0.116988	0	0	-0.424458	0.084879	-0.0310155	4.52282e-08	0.241322	0	0	-0.273908	-0.101961	-0.157501	-0.0768806	-0.206199	0.210773	0.442241	0.915411	0	0	0.00499408	-0.446136	0.282893	0.765279	1.22332	0	0
2.18	0.251354	1.46416	-1.72755	0.880594	-0.255275	0.907239	0.343605	-0.0653149	-0.181345	0.0854646	0.120632	0	0	-0.43203	0.08199	-0.0364444	0.0148212	0.251184	0	0	-0.275964	-0.0996495	-0.159366	-0.0764191	-0.206293	0.210904	0.443587	0.913069	0	0	0.00188463	-0.441973	0.279205	0.759063	1.22838	0	0
2.19	0.249455	1.46292	-1.72418	0.880166	-0.266563	0.905841	0.342208	-0.065025	-0.190041	0.113493	0.124626	0	0	-0.436598	0.0782297	-0.0464909	0.0357577	0.263449	0	0	-0.277599	-0.0966486	-0.162978	-0.0764703	-0.206032	0.209985	0.445683	0.911684	0	0	-0.00237437	-0.437943	0.276348	0.752886	1.23107	0	0
2.2	0.244406	1.46168	-1.71657	0.879825	-0.27813	0.904574	0.339449	-0.0649783	-0.199492	0.14133	0.128772	0	0	-0.439762	0.0733089	-0.058956	0.0601105	0.276153	0	0	-0.278854	-0.0928129	-0.168256	-0.0768276	-0.205364	0.208867	0.447627	0.911263	0	0	-0.00800138	-0.433993	0.273876	0.746636	1.23269	0	0
2.21	0.212232	1.46039	-1.68216	0.879022	-0.289849	0.90362	0.340084	-0.0567521	-0.226785	0.172262	0.134029	0	0	-0.442251	0.0641137	-0.0755878	0.0869626	0.288084	0	0	-0.280521	-0.0863518	-0.173105	-0.0766685	-0.203627	0.207226	0.448651	0.911314	0	0	-0.0142052	-0.430681	0.271963	0.740204	1.23407	0	0
2.22	0.190018	1.46166	-1.65549	0.878605	-0.301579	0.902587	0.337811	-0.0544522	-0.238075	0.188234	0.129074	0	0	-0.434375	0.0532667	-0.1031	0.129547	0.307155	0	0	-0.279296	-0.0797	-0.1794	-0.0768813	-0.200167	0.192747	0.44783	0.929126	0	0	-0.0193299	-0.427542	0.275959	0.732741	1.22353	0	0
2.23	0.151836	1.46116	-1.61378	0.878049	-0.313589	0.902098	0.329149	-0.048231	-0.243301	0.189928	0.105863	0	0	-0.436661	0.0425644	-0.111003	0.153476	0.309243	0	0	-0.279641	-0.0713653	-0.184941	-0.0771163	-0.199258	0.191835	0.448503	0.928274	0	0	-0.0254056	-0.422749	0.27493	0.724366	1.22831	0	0
2.24	0.10174	1.46168	-1.56079	0.877237	-0.325659	0.90176	0.319015	-0.0395647	-0.248792	0.184429	0.0705461	0	0	-0.432872	0.0289339	-0.126576	0.187459	0.313477	0	0	-0.278745	-0.061793	-0.189473	-0.0771241	-0.198131	0.18959	0.448476	0.928282	0	0	-0.0312463	-0.417755	0.274324	0.715102	1.23367	0	0
2.25	0.0499842	1.4636	-1.5082	0.87613	-0.337791	0.901452	0.310064	-0.0302711	-0.25345	0.179605	0.03782	0	0	-0.424163	0.0145208	-0.146634	0.228056	0.316429	0	0	-0.275792	-0.0527294	-0.192258	-0.0765869	-0.196905	0.186434	0.44758	0.929076	0	0	-0.0374825	-0.41283	0.273982	0.706	1.23989	0	0
2.26	-0.00304299	1.4662	-1.45609	0.874836	-0.349992	0.901265	0.30485	-0.0217284	-0.258778	0.183483	0.0177006	0	0	-0.411769	-0.00039598	-0.168391	0.274118	0.31627	0	0	-0.271626	-0.0441178	-0.193411	-0.0759717	-0.195891	0.183691	0.446345	0.930727	0	0	-0.0437067	-0.407963	0.274262	0.696628	1.24741	0	0
2.27	-0.0626679	1.46756	-1.39741	0.873539	-0.362309	0.90149	0.302763	-0.0143532	-0.266158	0.198558	0.00946057	0	0	-0.397261	-0.0173874	-0.189773	0.325989	0.311429	0	0	-0.268237	-0.0347474	-0.194032	-0.0754488	-0.19512	0.182575	0.444709	0.933261	0	0	-0.0496361	-0.403042	0.276097	0.687292	1.25495	0	0
